<svg xmlns="http://www.w3.org/2000/svg" viewBox="0 0 560 54.93"><defs><style>.cls-1{fill:#fff;}</style></defs><g id="Layer_2" data-name="Layer 2"><g id="Layer_1-2" data-name="Layer 1"><g id="Layer_2-2" data-name="Layer 2"><g id="Layer_1-2-2" data-name="Layer 1-2"><path class="cls-1" d="M14.91,42.52Q8,42.52,4,38.61T0,28q0-6.9,4.14-10.8t11.15-3.9q6.93,0,10.86,3.89a13.81,13.81,0,0,1,3.94,10.32q0,6.9-4.06,10.93T14.91,42.52ZM15.18,36a5.43,5.43,0,0,0,4.63-2.06,10.46,10.46,0,0,0,1.54-6.17,9.29,9.29,0,0,0-1.55-5.84,5.59,5.59,0,0,0-4.67-1.95A5.71,5.71,0,0,0,10.4,22a9.24,9.24,0,0,0-1.68,5.91q0,4,1.61,6A5.9,5.9,0,0,0,15.18,36Z"/><path class="cls-1" d="M52,7.27a9.15,9.15,0,0,0-1.41-.51,5.21,5.21,0,0,0-1.42-.17,3.26,3.26,0,0,0-2.62,1.08,4.6,4.6,0,0,0-.91,3V14H52v6.33H45.65V41.84H37.1V20.36H32.43V14H37.1v-3.8a9.52,9.52,0,0,1,3.09-7.4,11.48,11.48,0,0,1,8-2.81,17.19,17.19,0,0,1,3.12.23C52.14.39,53,.61,54,.88Z"/><path class="cls-1" d="M73.33,7.27a8.9,8.9,0,0,0-1.42-.51,5.14,5.14,0,0,0-1.41-.17,3.26,3.26,0,0,0-2.62,1.08,4.6,4.6,0,0,0-.91,3V14h6.36v6.33H67V41.84H58.42V20.36H53.75V14h4.67v-3.8a9.52,9.52,0,0,1,3.09-7.4,11.48,11.48,0,0,1,8-2.81,17.23,17.23,0,0,1,3.13.23c.83.15,1.72.37,2.66.64Z"/><path class="cls-1" d="M81.8,10.2a5.07,5.07,0,0,1-3.64-1.35,4.47,4.47,0,0,1-1.41-3.37,4.44,4.44,0,0,1,1.41-3.41,5.69,5.69,0,0,1,7.29,0,4.43,4.43,0,0,1,1.4,3.41,4.44,4.44,0,0,1-1.4,3.41A5.11,5.11,0,0,1,81.8,10.2ZM86,41.84H77.46V14H86Z"/><path class="cls-1" d="M115.61,40.11a18.74,18.74,0,0,1-4.36,1.83,18.25,18.25,0,0,1-4.71.58q-7.07,0-11-3.88a13.49,13.49,0,0,1-3.94-10q0-7.09,4.2-11.18t11.12-4.09a18.16,18.16,0,0,1,4.59.51,16.51,16.51,0,0,1,4,1.61l-3.18,5.76a11.2,11.2,0,0,0-2.43-1,9.9,9.9,0,0,0-2.6-.31,6.41,6.41,0,0,0-5.1,2.12,8.84,8.84,0,0,0-1.85,6,7.92,7.92,0,0,0,2.07,5.81,6.77,6.77,0,0,0,5,2.09,8.81,8.81,0,0,0,2.16-.37,11.25,11.25,0,0,0,2.79-1.18Z"/><path class="cls-1" d="M144.94,30.38H126.8a6,6,0,0,0,2,4.48,7.77,7.77,0,0,0,5,1.47,11,11,0,0,0,3.3-.72,14.26,14.26,0,0,0,4.09-2.27L145,38.2a19.74,19.74,0,0,1-5.87,3.29,20.29,20.29,0,0,1-6.65,1q-6.73,0-10.46-3.73T118.3,28.37a15.16,15.16,0,0,1,3.94-10.83,13.09,13.09,0,0,1,10-4.19,12.51,12.51,0,0,1,9.26,3.49Q145,20.34,145,27ZM137,25.11c0-2.15-.41-3.68-1.21-4.6a4.61,4.61,0,0,0-3.63-1.37,4.77,4.77,0,0,0-3.57,1.6,7.45,7.45,0,0,0-1.83,4.37Z"/><path class="cls-1" d="M153.14,42.47a4,4,0,0,1-2.85-1.09,3.79,3.79,0,0,1,0-5.42,4,4,0,0,1,2.85-1.1A4,4,0,0,1,156,36a3.61,3.61,0,0,1,1.15,2.71A3.56,3.56,0,0,1,156,41.38,4,4,0,0,1,153.14,42.47Z"/><path class="cls-1" d="M188.67,41.84h-6.3V25.93A9.43,9.43,0,0,0,181,20.28a4.87,4.87,0,0,0-4.18-1.87,5.87,5.87,0,0,0-4.66,2.14A8.09,8.09,0,0,0,170.28,26v15.8H164V.67h6.33V18.43h.11a10.64,10.64,0,0,1,3.8-3.8,10.14,10.14,0,0,1,5-1.25q4.71,0,7.06,2.84t2.37,8.51Z"/><path class="cls-1" d="M199.53,8.66a4,4,0,0,1-2.88-1.12,3.68,3.68,0,0,1-1.14-2.74A3.64,3.64,0,0,1,196.65,2a4.4,4.4,0,0,1,5.79,0,3.67,3.67,0,0,1,1.14,2.77,3.72,3.72,0,0,1-1.14,2.76A4,4,0,0,1,199.53,8.66Zm3.12,33.18h-6.32V14h6.32Z"/><path class="cls-1" d="M226.34,19.33a6.81,6.81,0,0,0-1-.2,6.7,6.7,0,0,0-1.1-.07,6,6,0,0,0-5.21,2.5,10.75,10.75,0,0,0-1.82,6.51V41.84h-6.33V14h6.33v5.35h.11A9,9,0,0,1,220.2,15a7.1,7.1,0,0,1,4.48-1.48,9.76,9.76,0,0,1,1.32.09,7.21,7.21,0,0,1,1.12.24Z"/><path class="cls-1" d="M252.68,41.84h-6.11V37.66h-.11a9.83,9.83,0,0,1-3.5,3.63,9.53,9.53,0,0,1-4.81,1.21,9,9,0,0,1-6.27-2.25,7.78,7.78,0,0,1-2.5-6.12,8,8,0,0,1,2.5-6.07q2.49-2.37,7.41-3.08l7.31-1v-.57a5.15,5.15,0,0,0-1.47-4.1,5.85,5.85,0,0,0-4-1.28,12.17,12.17,0,0,0-4,.71,13.82,13.82,0,0,0-4,2.2l-2.74-3.78a17.61,17.61,0,0,1,11.24-3.8q5.6,0,8.31,2.76c1.81,1.84,2.72,4.59,2.72,8.27ZM246.6,30.55V28.18l-5.95.79a8.1,8.1,0,0,0-4,1.43,3.61,3.61,0,0,0-1.32,3.05,4.09,4.09,0,0,0,1.25,3.18,4.54,4.54,0,0,0,3.2,1.14,6.29,6.29,0,0,0,4.92-2A7.48,7.48,0,0,0,246.6,30.55Z"/><path class="cls-1" d="M263.68,8.66a4,4,0,0,1-2.88-1.12,3.68,3.68,0,0,1-1.14-2.74A3.64,3.64,0,0,1,260.8,2a4.38,4.38,0,0,1,5.78,0,3.67,3.67,0,0,1,1.14,2.77,3.72,3.72,0,0,1-1.14,2.76A4,4,0,0,1,263.68,8.66Zm3.12,33.18h-6.33V14h6.33Z"/><path class="cls-1" d="M299.8,41.84h-6.3V26.17a9.91,9.91,0,0,0-1.41-5.82,4.91,4.91,0,0,0-4.24-1.94,5.89,5.89,0,0,0-4.67,2.14A8,8,0,0,0,281.33,26V41.84H275V14h6.33v4.51h.11a10.6,10.6,0,0,1,3.8-3.87,10.31,10.31,0,0,1,5.24-1.29,8.43,8.43,0,0,1,6.94,2.91c1.59,1.93,2.38,4.79,2.38,8.55Z"/><path class="cls-1" d="M304.77,39.62l2.74-4.46A16.47,16.47,0,0,0,311,37a11.38,11.38,0,0,0,4,.69,6.57,6.57,0,0,0,3.63-.86,3.07,3.07,0,0,0,.67-4.29,2.84,2.84,0,0,0-.5-.54,8.88,8.88,0,0,0-3.66-1.51c-3.47-.81-5.91-1.88-7.32-3.23a7,7,0,0,1-2.1-5.3,7.65,7.65,0,0,1,2.93-6.17,11.71,11.71,0,0,1,7.69-2.41,16.79,16.79,0,0,1,4.51.61A15.51,15.51,0,0,1,325,15.93l-2.55,4.35a15.05,15.05,0,0,0-3.29-1.63,9.72,9.72,0,0,0-3.07-.49,6.17,6.17,0,0,0-3.46.83,2.63,2.63,0,0,0-1.24,2.29,2.5,2.5,0,0,0,1.26,2.3A16.68,16.68,0,0,0,316.94,25a13.94,13.94,0,0,1,6.59,3.14,7.32,7.32,0,0,1,2.1,5.47,7.9,7.9,0,0,1-2.95,6.45,12.27,12.27,0,0,1-8,2.41,18.65,18.65,0,0,1-5.2-.72A18.09,18.09,0,0,1,304.77,39.62Z"/><path class="cls-1" d="M346.59,41.46a11.34,11.34,0,0,1-2.55.76,15.1,15.1,0,0,1-2.85.25,8.15,8.15,0,0,1-5.94-2q-2.07-2.06-2.07-6.13V19H328.5V14h4.68V7.27l6.3-1.9V14h6.65v5h-6.65v14.8a4.61,4.61,0,0,0,.74,2.93,2.88,2.88,0,0,0,2.33.9,5.88,5.88,0,0,0,1.45-.18,6.71,6.71,0,0,0,1.23-.45Z"/><path class="cls-1" d="M354.74,8.66a4,4,0,0,1-2.88-1.12,3.68,3.68,0,0,1-1.14-2.74A3.64,3.64,0,0,1,351.86,2,4,4,0,0,1,354.74.94,4.07,4.07,0,0,1,357.65,2a3.67,3.67,0,0,1,1.14,2.77,3.72,3.72,0,0,1-1.14,2.76A4,4,0,0,1,354.74,8.66Zm3.12,33.18h-6.33V14h6.33Z"/><path class="cls-1" d="M381.22,41.46a11.88,11.88,0,0,1-2.55.76,15.21,15.21,0,0,1-2.86.25,8.12,8.12,0,0,1-5.93-2q-2.08-2.06-2.08-6.13V19h-4.67V14h4.67V7.27l6.3-1.9V14h6.66v5H374.1v14.8a4.54,4.54,0,0,0,.75,2.93,2.85,2.85,0,0,0,2.32.9,5.88,5.88,0,0,0,1.45-.18,6.81,6.81,0,0,0,1.24-.45Z"/><path class="cls-1" d="M410.44,41.84h-6.33V37.53H404a10.22,10.22,0,0,1-3.61,3.72,9.71,9.71,0,0,1-4.94,1.25q-4.89,0-7.35-2.94c-1.64-2-2.45-4.9-2.45-8.82V14h6.27V30a9,9,0,0,0,1.45,5.6,5.17,5.17,0,0,0,4.36,1.87,5.81,5.81,0,0,0,4.6-2A7.94,7.94,0,0,0,404.11,30V14h6.33Z"/><path class="cls-1" d="M433.77,41.46a11.88,11.88,0,0,1-2.55.76,15.21,15.21,0,0,1-2.86.25,8.12,8.12,0,0,1-5.93-2c-1.38-1.37-2.08-3.41-2.08-6.13V19h-4.67V14h4.67V7.27l6.3-1.9V14h6.66v5h-6.66v14.8a4.54,4.54,0,0,0,.75,2.93,2.85,2.85,0,0,0,2.32.9,6,6,0,0,0,1.46-.18,6.71,6.71,0,0,0,1.23-.45Z"/><path class="cls-1" d="M461.93,29.6H443a8.44,8.44,0,0,0,2.28,6,8.12,8.12,0,0,0,5.92,2,12.12,12.12,0,0,0,3.53-.62,14,14,0,0,0,3.91-2l2.85,3.94a18.26,18.26,0,0,1-5.24,2.71,19.38,19.38,0,0,1-5.86.85q-6.5,0-10.11-3.74t-3.69-10.42q0-6.69,3.74-10.81a12.33,12.33,0,0,1,9.57-4.13,11.32,11.32,0,0,1,8.81,3.52q3.23,3.51,3.22,10Zm-6.11-4.38a8.06,8.06,0,0,0-1.56-5.39,5.49,5.49,0,0,0-4.41-1.8,6.09,6.09,0,0,0-4.58,2,8.94,8.94,0,0,0-2.27,5.2Z"/><path class="cls-1" d="M470.54,42.47a4,4,0,0,1-2.85-1.09,3.79,3.79,0,0,1,0-5.42,4,4,0,0,1,2.85-1.1,4,4,0,0,1,2.87,1.1,3.61,3.61,0,0,1,1.15,2.71,3.53,3.53,0,0,1-1.15,2.71A4,4,0,0,1,470.54,42.47Z"/><path class="cls-1" d="M493.71,42.5q-6.52,0-10.34-3.9t-3.81-10.44q0-6.93,4-10.85t10.73-3.93q6.54,0,10.23,3.84t3.68,10.47q0,6.79-3.9,10.8T493.71,42.5Zm.3-5A6.88,6.88,0,0,0,499.75,35q2-2.48,2-7.14t-2-7A7,7,0,0,0,494,18.41,7.21,7.21,0,0,0,488.15,21,10.6,10.6,0,0,0,486,28q0,4.53,2.12,7A7.38,7.38,0,0,0,494,37.47Z"/><path class="cls-1" d="M530,19.33a6.81,6.81,0,0,0-1-.2,6.65,6.65,0,0,0-1-.11,6,6,0,0,0-5.21,2.5A10.75,10.75,0,0,0,521,28V41.84h-6.33V14H521v5.35h0A9,9,0,0,1,523.91,15a7.1,7.1,0,0,1,4.48-1.48,9.76,9.76,0,0,1,1.32.09,7.21,7.21,0,0,1,1.12.24Z"/><path class="cls-1" d="M560,39.59q0,7.11-4,11.23t-11.33,4.11a24.13,24.13,0,0,1-10.51-2.25l2-4.51a21.53,21.53,0,0,0,4.15,1.39,21,21,0,0,0,4.4.43,8.69,8.69,0,0,0,6.61-2.46q2.35-2.46,2.35-7V37.47h-.11a10.16,10.16,0,0,1-3.81,3.78,11,11,0,0,1-5.34,1.25,10.39,10.39,0,0,1-8.4-3.73q-3.15-3.72-3.14-10,0-7,3.49-11.19a11.32,11.32,0,0,1,9.19-4.24,9.84,9.84,0,0,1,4.7,1.06,8.64,8.64,0,0,1,3.31,3.18h.11V14H560Zm-6.27-10.67V25.68a7.38,7.38,0,0,0-1.93-5.14,6.31,6.31,0,0,0-4.89-2.13A6.71,6.71,0,0,0,541.33,21q-2,2.55-2,7.52a10.35,10.35,0,0,0,1.88,6.64,6.33,6.33,0,0,0,5.23,2.35,6.63,6.63,0,0,0,5.28-2.38A9.19,9.19,0,0,0,553.73,28.92Z"/></g></g></g></g></svg>
