<?xml version="1.0" encoding="UTF-8" standalone="no"?>
<!DOCTYPE svg PUBLIC "-//W3C//DTD SVG 1.1//EN" "http://www.w3.org/Graphics/SVG/1.1/DTD/svg11.dtd">
<svg width="100%" height="100%" viewBox="0 0 1000 1000" version="1.1" xmlns="http://www.w3.org/2000/svg" xmlns:xlink="http://www.w3.org/1999/xlink" xml:space="preserve" xmlns:serif="http://www.serif.com/" style="fill-rule:evenodd;clip-rule:evenodd;stroke-linejoin:round;stroke-miterlimit:2;">
    <g transform="matrix(1,0,0,1,-1100.56,0)">
        <g id="Layer-2" serif:id="Layer 2">
        </g>
        <g id="Blue" transform="matrix(2.303,0,0,1.30612,2378.37,-21.2379)">
            <rect x="-554.844" y="16.26" width="434.216" height="765.624" style="fill:none;"/>
            <clipPath id="_clip1">
                <rect x="-554.844" y="16.26" width="434.216" height="765.624"/>
            </clipPath>
            <g clip-path="url(#_clip1)">
                <g transform="matrix(1.52281,0,0,2.44411,-794.886,-1112.54)">
                    <rect x="157.631" y="461.847" width="285.141" height="313.253" style="fill:rgb(27,27,122);"/>
                </g>
                <g transform="matrix(1,0,0,1,0,32.2392)">
                    <g transform="matrix(0.330225,0,0,0.582264,-502.849,25.4285)">
                        <g transform="matrix(1,0,0,1,596.437,580.521)">
                            <path d="M0,-161.042C-8.839,-181.682 -25.879,-224.351 -29.356,-233.429C-33.6,-244.511 -34.857,-250.091 -33.482,-251.073C-32.106,-252.056 -13.352,-240.885 1.385,-214.359C12.14,-195.002 5.219,-172.911 0,-161.042M136.198,-71.804C128.526,-92.573 121.034,-112.534 114.946,-128.975C105.454,-154.61 99.856,-169.177 101.506,-170.827C103.157,-172.478 139.586,-145.244 142.173,-118.005C143.428,-104.785 141.576,-89.523 136.198,-71.804M161.632,-0.707C156.269,-16.524 150.052,-33.942 143.686,-51.406C161.58,-79.126 171.101,-111.752 170.356,-142.873C169.104,-195.216 124.849,-215.037 96.083,-249.226C88.386,-258.374 86.088,-270.529 86.121,-278.641C86.18,-292.847 91.78,-301.807 86.259,-307.937C33.443,-227.141 63.664,-176.631 101.664,-70.264C103.75,-64.424 108.869,-51.147 115.264,-34.227C112.115,-26.948 109,-19.431 104.218,-9.195C109.706,-13.217 114.888,-17.6 119.76,-22.281C125.203,-7.75 131.195,8.523 136.874,24.68C147.277,54.276 157.624,80.276 157.624,108.934C157.624,138.599 130.272,176.841 87.851,217.419C35.374,267.617 -35.093,308.646 -96.607,308.646C-168.173,308.646 -177.009,244.191 -158.832,169.89C-149.959,166.839 -140.167,165.052 -129.329,165.052C-94.276,165.052 -87.988,188.395 -50.576,188.395C-10.728,188.395 11.939,156.622 36.743,124.182C61.4,91.936 63.545,82.644 75.806,73.802C88.066,64.96 94.411,64.528 96.437,62.131C97.483,60.893 98.009,59.652 99.001,55.204C100.406,48.906 102.249,36.876 104.218,13.382C78.635,16.584 28.412,26.252 2.004,29.71C2.004,29.71 25.229,-7.78 29.67,-39.611C33.941,-70.227 17.025,-118.244 7.257,-145.827C20.632,-167.519 50.842,-229.932 12.536,-274.298C-12.308,-303.073 -48.219,-320.788 -48.336,-348.375C-48.432,-370.776 -43.385,-374.901 -48.572,-380.088C-84.294,-329.394 -77.22,-271.39 -55.528,-213.151C-46.163,-188.008 -33.465,-154.653 -21.826,-123.106C-24.908,-115.323 -28.826,-105.043 -31.478,-96.79L-17.445,-111.174C-6.81,-82.065 2.392,-55.683 6.482,-40.414C9.392,-29.551 7.758,-21.204 4.834,-16.662C-8.983,4.797 -50.723,29.625 -53.642,37.019C-57.178,45.979 -64.574,68.815 -67.16,80.247C-69.52,90.678 -63.623,89.678 -60.322,89.443C-57.021,89.207 48.847,71.68 48.847,71.68C41.97,97.735 1.768,137.347 -39.259,137.347C-75.806,137.347 -80.05,113.336 -128.465,113.336C-132.924,113.336 -137.151,113.736 -141.192,114.453C-136.708,102.825 -131.794,91.279 -126.579,80.011C-134.35,90.465 -142.682,102.978 -150.615,116.823C-177.215,125.567 -194.922,149.409 -212.719,171.968C-235.041,200.263 -252.96,228.086 -289.272,228.086C-345.624,228.086 -357.89,161.511 -334.94,102.879C-270.806,-60.973 -90.739,-191.93 -90.739,-358.239C-90.739,-462.614 -154.873,-530.521 -154.873,-530.521C-179.081,-408.854 -177.194,-319.255 -177.194,-319.255C-157.27,-317.723 -147.243,-338.23 -146.401,-355.776C-145.694,-370.513 -152.319,-391.17 -152.436,-404.139C-103.864,-352.973 -137.703,-259.874 -190.084,-174.953C-273.081,-40.397 -375.02,71.916 -375.02,195.468C-375.02,267.776 -334.229,290.491 -309.942,290.491C-279.88,290.491 -253.718,268.906 -234.726,243.687C-223.988,229.428 -207.538,197.987 -178.546,179.471C-223.407,319.993 -153.288,369.479 -96.607,369.479C-16.23,369.479 57.625,310.127 107.637,249.464C155.521,191.38 182.146,136.959 182.146,93.608C182.146,60.676 175.544,40.32 161.632,-0.707" style="fill:white;fill-rule:nonzero;"/>
                        </g>
                        <g transform="matrix(1,0,0,1,396.725,627.177)">
                            <path d="M0,75.364C10.728,70.648 14.619,68.172 19.924,60.981C25.229,53.789 40.202,27.735 40.202,27.735C40.202,27.735 4.48,41.529 -22.636,41.529C-49.751,41.529 -69.204,29.503 -65.667,20.426C-62.13,11.348 -44.092,8.754 -32.892,8.754C-24.404,8.754 -21.26,10.012 -15.68,10.012C-10.1,10.012 -5.62,7.772 -4.637,2.113C-3.655,-3.546 0.118,-36.9 0.295,-38.551C0.472,-40.201 -0.295,-41.852 -3.743,-41.852C-68.025,-41.852 -98.559,16.299 -98.677,46.166C-98.746,63.726 -88.034,72.869 -71.001,73.419C-58.21,73.831 -48.926,71.002 -48.926,71.002L-115.182,117.216C-115.182,117.216 -10.728,80.08 0,75.364" style="fill:white;fill-rule:nonzero;"/>
                        </g>
                        <g transform="matrix(1,0,0,1,540.831,792.121)">
                            <path d="M0,18.136C-17.134,25.131 -16.584,29.061 -27.626,51.421C-27.626,51.421 -6.877,41.99 -4.225,40.811C-1.572,39.632 0.609,34.798 1.729,32.912C2.849,31.026 3.615,30.377 6.504,29.316C9.392,28.255 80.305,-0.039 90.326,-4.283C100.347,-8.528 104.768,-16.957 110.958,-33.285C110.958,-33.285 98.284,-21.732 86.495,-16.78C74.705,-11.829 17.134,11.141 0,18.136" style="fill:white;fill-rule:nonzero;"/>
                        </g>
                        <g transform="matrix(1,0,0,1,446.02,471.127)">
                            <path d="M0,40.496C2.888,39.435 73.801,11.141 83.822,6.896C93.843,2.652 98.264,-5.777 104.454,-22.105C104.454,-22.105 91.78,-10.552 79.991,-5.6C68.201,-0.649 10.63,22.321 -6.504,29.316C-23.638,36.311 -23.088,40.241 -34.13,62.601C-34.13,62.601 -13.381,53.17 -10.728,51.991C-8.076,50.812 -5.895,45.978 -4.775,44.092C-3.655,42.205 -2.888,41.557 0,40.496" style="fill:white;fill-rule:nonzero;"/>
                        </g>
                        <g transform="matrix(1,0,0,1,431.217,445.941)">
                            <path d="M0,18.136C-17.134,25.131 -16.584,29.061 -27.626,51.421C-27.626,51.421 -6.877,41.99 -4.225,40.811C-1.572,39.632 0.609,34.798 1.729,32.912C2.849,31.026 3.615,30.377 6.504,29.316C9.392,28.255 80.305,-0.039 90.326,-4.283C100.347,-8.528 104.768,-16.957 110.958,-33.285C110.958,-33.285 98.284,-21.732 86.495,-16.78C74.705,-11.829 17.134,11.141 0,18.136" style="fill:white;fill-rule:nonzero;"/>
                        </g>
                    </g>
                    <g transform="matrix(0.845983,0,0,1.49167,-922.99,-646.436)">
                        <path d="M547.6,886.8C548.246,886.363 549.412,886.051 551.1,885.864C552.412,885.802 553.194,885.687 553.444,885.521C553.61,885.397 553.735,885.241 553.819,885.055C554.131,884.287 554.36,882.203 554.506,878.8C554.697,874.363 555.005,868.457 555.43,861.082C555.77,855.457 555.94,851.947 555.94,850.551L555.94,849.739C554.434,849.426 552.05,849.092 548.788,848.738C548.579,848.425 548.475,848.186 548.475,848.019C548.475,847.915 548.548,847.727 548.693,847.456C549.047,847.331 549.317,847.269 549.504,847.269C549.67,847.269 550.034,847.311 550.595,847.394C551.614,847.54 553.017,847.613 554.805,847.613C555.387,847.613 556.385,847.565 557.799,847.47C558.797,847.398 559.358,847.363 559.483,847.363C559.815,847.363 560.2,847.425 560.636,847.55C560.851,847.761 561.011,847.962 561.118,848.152L562.426,851.089L571.272,870.651L574.959,878.863C577.844,873.134 580.086,868.04 581.684,863.581C581.788,863.248 581.913,862.946 582.058,862.675C582.245,862.321 582.421,861.925 582.587,861.488C582.754,861.05 583.428,859.384 584.611,856.488C585.089,855.321 585.473,854.321 585.763,853.488C586.946,850.154 587.642,848.248 587.849,847.769C588.246,847.602 588.591,847.519 588.883,847.519C589.217,847.519 589.646,847.55 590.168,847.613C591.338,847.675 593.238,847.706 595.87,847.706C597.5,847.706 598.836,847.686 599.881,847.644C599.923,847.873 599.944,848.04 599.944,848.144C599.944,848.29 599.912,848.488 599.85,848.738C599.183,849.092 598.381,849.29 597.444,849.331C595.589,849.436 594.412,849.581 593.912,849.769C593.412,849.956 593.095,850.196 592.959,850.488C592.824,850.779 592.704,851.738 592.6,853.363L592.631,854.8L592.6,856.3C592.6,859.425 592.683,864.675 592.85,872.05L592.819,878.175L592.85,882.113C592.85,883.654 592.923,884.566 593.069,884.847C593.214,885.128 593.631,885.394 594.319,885.644C595.444,886.019 597.277,886.404 599.819,886.8C599.964,886.904 600.037,887.04 600.037,887.206C600.037,887.394 600.027,887.602 600.006,887.831L598.567,887.831C597.335,887.831 595.999,887.795 594.559,887.722C593.12,887.649 592.347,887.613 592.243,887.613C587.965,887.613 585.127,887.66 583.728,887.756C582.873,887.827 582.33,887.863 582.101,887.863C581.955,887.863 581.798,887.821 581.631,887.738L581.631,887.331C581.631,887.144 581.662,886.946 581.725,886.738C582.412,886.446 583.35,886.248 584.537,886.143C585.85,885.789 586.808,885.414 587.412,885.017C587.6,884.225 587.694,882.609 587.694,880.169L587.6,873.85C587.6,873.162 587.636,871.88 587.709,870.003C587.782,868.127 587.819,865.072 587.819,860.839C587.819,857.481 587.735,854.937 587.569,853.206C587.216,853.936 586.521,855.519 585.484,857.956L585.017,859.144L584.954,859.331L580.349,870.269L578.699,874.488L576.552,879.613C575.618,881.967 574.82,884.05 574.156,885.863C573.866,886.696 573.627,887.352 573.44,887.831L572.711,887.8C570.354,880.925 567.544,873.873 564.28,866.644C561.016,859.415 558.726,854.644 557.412,852.331C557.241,853.227 557.048,855.831 556.833,860.144C556.555,865.394 556.415,871.175 556.415,877.488C556.415,879.46 556.561,881.682 556.853,884.152C556.936,884.858 557.238,885.382 557.759,885.725C558.28,886.067 559.624,886.259 561.79,886.301C562.624,886.301 563.415,886.363 564.165,886.488C564.311,886.808 564.384,887.043 564.384,887.193C564.384,887.3 564.332,887.481 564.228,887.738L554.526,887.394C553.819,887.394 552.716,887.44 551.218,887.533C550.387,887.588 549.191,887.625 547.631,887.644L547.6,886.8Z" style="fill:white;fill-rule:nonzero;"/>
                        <path d="M618.756,847.425C618.86,847.779 618.912,848.05 618.912,848.238C618.912,848.363 618.881,848.55 618.819,848.8C618.277,848.946 617.839,849.019 617.506,849.019C617.36,849.019 617.115,849.003 616.772,848.972C616.428,848.941 616.152,848.925 615.944,848.925C614.985,848.925 614.225,849.113 613.662,849.488C613.287,849.717 613.058,850.02 612.975,850.395L612.662,853.96L612.756,869.442C612.777,875.114 612.964,878.642 613.319,880.029C613.673,881.416 614.266,882.557 615.1,883.454C615.933,884.35 617.188,885.091 618.865,885.674C620.542,886.258 622.173,886.55 623.756,886.55C627.298,886.55 630.011,886.039 631.897,885.018C633.782,883.996 635.136,882.583 635.959,880.78C636.782,878.976 637.194,876.24 637.194,872.57C637.194,872.466 637.162,871.632 637.1,870.068L637.1,869.161C637.1,868.827 637.121,868.176 637.162,867.206C637.204,866.237 637.225,865.669 637.225,865.502L636.756,856.526C636.61,853.502 636.438,851.72 636.24,851.177C636.042,850.635 635.756,850.229 635.381,849.958C634.569,849.374 633.027,848.853 630.756,848.394C630.652,848.102 630.589,847.8 630.569,847.488C631.381,847.404 632.183,847.363 632.975,847.363C633.808,847.363 634.683,847.394 635.6,847.456C636.975,847.561 637.725,847.613 637.85,847.613L642.787,847.456L643.756,847.488L643.725,848.613C641.162,848.946 639.631,849.337 639.131,849.786C638.631,850.234 638.381,851.063 638.381,852.272C638.381,852.918 638.423,854.325 638.506,856.494L638.725,862.968L638.694,865.532L638.787,868.785C638.787,872.871 638.673,875.655 638.444,877.135C638.11,879.199 637.636,880.836 637.022,882.045C636.407,883.254 635.516,884.344 634.35,885.313C633.183,886.283 631.626,887.08 629.678,887.706C627.73,888.331 625.808,888.644 623.912,888.644C620.933,888.644 618.787,888.435 617.475,888.018C615.079,887.289 613.173,886.34 611.756,885.173C610.339,884.005 609.36,882.837 608.819,881.67C608.089,880.127 607.725,877.875 607.725,874.914L607.725,872.756L607.631,863.999L607.725,856.932L607.725,852.178C607.725,850.968 607.558,850.124 607.225,849.644C606.996,849.311 606.662,849.144 606.225,849.144L604.381,849.175C603.006,849.175 602.131,849.029 601.756,848.738C601.694,848.55 601.662,848.384 601.662,848.238C601.662,848.05 601.725,847.904 601.85,847.8C602.079,847.634 602.36,847.55 602.694,847.55L603.506,847.55L605.6,847.519L610.537,847.519L618.756,847.425Z" style="fill:white;fill-rule:nonzero;"/>
                        <path d="M670.694,848.988C670.86,850.363 670.944,851.154 670.944,851.363L670.819,854.144C670.777,855.331 670.725,856.092 670.662,856.425C670.475,856.509 670.319,856.55 670.194,856.55L669.912,856.488C669.246,853.571 668.115,851.446 666.522,850.113C664.928,848.779 662.985,848.113 660.694,848.113C658.319,848.113 656.371,848.779 654.85,850.113C653.329,851.446 652.569,852.998 652.569,854.769C652.569,856.123 653.1,857.363 654.162,858.488C655.225,859.613 657.944,861.296 662.319,863.538C665.652,865.26 668.037,866.669 669.475,867.764C670.912,868.859 671.996,870.126 672.725,871.565C673.454,873.004 673.819,874.609 673.819,876.382C673.819,878.613 673.24,880.709 672.084,882.669C670.928,884.63 669.371,886.105 667.412,887.096C665.454,888.086 662.86,888.581 659.631,888.581C656.819,888.581 654.121,888.134 651.537,887.238C650.016,886.696 649.089,886.259 648.756,885.925C648.423,885.592 648.256,885.238 648.256,884.863C648.256,884.634 648.277,884.342 648.319,883.988C648.61,881.529 648.766,879.509 648.787,877.925C648.829,876.946 648.902,876.373 649.006,876.206C649.089,876.061 649.246,875.988 649.475,875.988C649.662,875.988 649.813,876.055 649.928,876.191C650.042,876.326 650.121,876.581 650.162,876.956C650.391,879.519 651.579,881.811 653.725,883.831C655.85,885.852 658.256,886.863 660.944,886.863C662.589,886.863 664.105,886.519 665.49,885.831C666.876,885.144 667.959,884.149 668.74,882.847C669.522,881.545 669.912,880.279 669.912,879.05C669.912,877.363 669.319,875.821 668.131,874.425C666.944,873.029 664.558,871.399 660.975,869.535C657.391,867.67 655.058,866.311 653.975,865.456C652.225,864.061 650.912,862.581 650.037,861.019C649.391,859.811 649.069,858.404 649.069,856.8C649.069,853.904 650.214,851.451 652.506,849.441C654.798,847.43 657.871,846.425 661.725,846.425C663.85,846.425 665.683,846.665 667.225,847.144C668.35,847.519 669.506,848.134 670.694,848.988Z" style="fill:white;fill-rule:nonzero;"/>
                        <path d="M676.162,886.55C676.454,886.384 676.714,886.3 676.943,886.3L677.662,886.3C677.807,886.3 678.057,886.29 678.411,886.269C680.015,886.123 680.962,885.977 681.254,885.831C681.983,885.436 682.608,884.748 683.128,883.769C684.212,881.644 685.431,878.634 686.785,874.738C687.431,872.884 687.838,871.759 688.005,871.363C688.525,870.113 689.026,868.8 689.505,867.425L692.443,859.206C692.902,857.915 694.006,854.956 695.757,850.331C696.194,849.165 696.725,847.602 697.351,845.644L698.271,845.581L699.363,845.613C700.258,847.384 701.049,849.29 701.736,851.331C702.11,852.415 702.724,854.029 703.577,856.175L708.321,869.019L710.85,875.988C712.183,879.946 713.058,882.378 713.475,883.285C713.891,884.191 714.277,884.79 714.631,885.081C714.735,885.165 715.126,885.29 715.803,885.456C716.48,885.623 716.954,885.748 717.225,885.831C718.183,886.102 718.85,886.331 719.225,886.519C719.308,886.748 719.35,886.925 719.35,887.05C719.35,887.154 719.319,887.311 719.256,887.519C718.589,887.54 718.121,887.55 717.85,887.55C716.787,887.55 714.912,887.519 712.225,887.456L709.1,887.386L705.319,887.433C705.069,887.433 704.813,887.421 704.553,887.398C704.292,887.374 704.069,887.363 703.881,887.363L703.194,887.363C702.964,887.342 702.756,887.279 702.569,887.175C702.569,886.884 702.621,886.602 702.725,886.331C702.975,886.206 703.204,886.134 703.412,886.113L706.693,885.893C707.546,885.852 708.192,885.737 708.63,885.549C708.755,885.174 708.817,884.892 708.817,884.704C708.817,884.328 708.546,883.357 708.005,881.792C707.63,880.748 707.303,879.757 707.022,878.818C706.741,877.879 705.633,874.79 703.698,869.551C702.844,869.405 702.094,869.331 701.448,869.331L694.76,869.394L692.792,869.363C692.083,869.363 691.302,869.415 690.448,869.519C690.177,870.144 690,870.592 689.916,870.863L687.162,879.456C685.996,882.727 685.412,884.529 685.412,884.863C685.412,885.05 685.506,885.363 685.694,885.8C686.131,885.925 686.714,886.04 687.444,886.144L691.694,886.519C691.923,886.706 692.037,886.873 692.037,887.019C692.037,887.123 692.006,887.279 691.944,887.488C691.006,887.509 690.287,887.519 689.787,887.519C688.121,887.519 686.183,887.467 683.975,887.363C682.954,887.321 682.225,887.3 681.787,887.3C681.35,887.3 680.589,887.321 679.506,887.363C678.798,887.404 678.287,887.425 677.975,887.425C677.475,887.425 676.829,887.394 676.037,887.331L676.037,887.144C676.037,886.998 676.079,886.8 676.162,886.55ZM691.074,867.8C693.303,867.925 695.845,867.988 698.699,867.988C700.324,867.988 701.751,867.936 702.98,867.831C702.772,867.019 702.532,866.259 702.262,865.551C700.91,861.927 700.161,859.928 700.015,859.554L697.175,852.338L696.863,851.775C696.738,852.025 696.279,853.098 695.486,854.993C694.151,858.242 693.191,860.772 692.607,862.583C692.336,863.396 692.054,864.203 691.762,865.004C691.47,865.806 691.287,866.368 691.215,866.691C691.142,867.014 691.032,867.342 690.886,867.675L691.074,867.8Z" style="fill:white;fill-rule:nonzero;"/>
                        <path d="M720.194,887.738C720.214,887.425 720.298,887.144 720.444,886.894C722.069,886.456 723.652,886.164 725.194,886.018C726.214,885.935 726.871,885.705 727.162,885.33C727.371,885.059 727.496,884.058 727.537,882.328L727.756,874.071L727.725,868.473L727.756,861.154L727.756,859.215C727.777,854.816 727.756,852.074 727.693,850.99C727.672,850.781 727.589,850.489 727.442,850.114C726.898,849.864 726.442,849.697 726.076,849.613C725.71,849.53 724.072,849.228 721.162,848.706C721.141,848.477 721.131,848.311 721.131,848.206C721.131,848.081 721.141,847.915 721.162,847.706C721.559,847.706 722.206,847.73 723.103,847.778L727.861,847.956L730.615,848.019L731.429,847.988C731.533,847.988 731.836,848.009 732.337,848.05C733.568,848.05 734.278,848.04 734.465,848.019L736.969,847.831C738.66,847.831 739.849,847.863 740.537,847.925C740.516,848.3 740.444,848.706 740.319,849.144C740.089,849.186 739.006,849.243 737.069,849.316C735.131,849.389 734.016,849.509 733.725,849.675C733.246,849.946 733.006,850.779 733.006,852.175C733.006,852.509 732.985,853.186 732.944,854.206L732.944,856.081L732.975,861.863L732.975,863.831L733.037,874.175L732.944,882.988L732.975,884.925C732.975,885.55 733.079,885.936 733.287,886.081C733.808,886.102 735.339,886.123 737.881,886.144L740.006,886.144L745.412,885.956C746.829,885.915 747.839,885.774 748.444,885.535C749.048,885.295 750.058,884.592 751.475,883.425C752.329,882.675 752.996,881.904 753.475,881.113C753.579,880.946 753.756,880.696 754.006,880.363C754.402,879.821 754.933,878.738 755.6,877.113L756.631,877.113C756.506,877.863 756.371,878.571 756.225,879.238C755.621,882.175 755.204,884.623 754.975,886.581C754.933,886.998 754.891,887.384 754.85,887.738L743.162,887.394C733.121,887.394 727.162,887.488 725.287,887.675C724.704,887.717 724.089,887.738 723.444,887.738L720.194,887.738Z" style="fill:white;fill-rule:nonzero;"/>
                        <path d="M756.85,887.738C756.871,887.425 756.954,887.144 757.1,886.894C758.725,886.456 760.308,886.164 761.85,886.018C762.871,885.935 763.527,885.705 763.819,885.33C764.027,885.059 764.152,884.058 764.194,882.328L764.412,874.071L764.381,868.473L764.412,861.154L764.412,859.215C764.433,854.816 764.412,852.074 764.349,850.99C764.328,850.781 764.245,850.489 764.098,850.114C763.554,849.864 763.099,849.697 762.732,849.613C762.366,849.53 760.728,849.228 757.819,848.706C757.798,848.477 757.787,848.311 757.787,848.206C757.787,848.081 757.798,847.915 757.819,847.706C758.215,847.706 758.862,847.73 759.759,847.778L764.517,847.956L767.272,848.019L768.085,847.988C768.19,847.988 768.492,848.009 768.993,848.05C770.224,848.05 770.934,848.04 771.121,848.019L773.626,847.831C775.316,847.831 776.505,847.863 777.194,847.925C777.173,848.3 777.1,848.706 776.975,849.144C776.746,849.186 775.662,849.243 773.725,849.316C771.787,849.389 770.673,849.509 770.381,849.675C769.902,849.946 769.662,850.779 769.662,852.175C769.662,852.509 769.641,853.186 769.6,854.206L769.6,856.081L769.631,861.863L769.631,863.831L769.694,874.175L769.6,882.988L769.631,884.925C769.631,885.55 769.735,885.936 769.944,886.081C770.464,886.102 771.996,886.123 774.537,886.144L776.662,886.144L782.069,885.956C783.485,885.915 784.496,885.774 785.1,885.535C785.704,885.295 786.714,884.592 788.131,883.425C788.985,882.675 789.652,881.904 790.131,881.113C790.235,880.946 790.412,880.696 790.662,880.363C791.058,879.821 791.589,878.738 792.256,877.113L793.287,877.113C793.162,877.863 793.027,878.571 792.881,879.238C792.277,882.175 791.86,884.623 791.631,886.581C791.589,886.998 791.548,887.384 791.506,887.738L779.819,887.394C769.777,887.394 763.819,887.488 761.944,887.675C761.36,887.717 760.746,887.738 760.1,887.738L756.85,887.738Z" style="fill:white;fill-rule:nonzero;"/>
                        <path d="M792.819,886.55C793.11,886.384 793.37,886.3 793.599,886.3L794.318,886.3C794.464,886.3 794.713,886.29 795.068,886.269C796.671,886.123 797.619,885.977 797.91,885.831C798.639,885.436 799.264,884.748 799.784,883.769C800.868,881.644 802.087,878.634 803.442,874.738C804.088,872.884 804.494,871.759 804.661,871.363C805.182,870.113 805.682,868.8 806.161,867.425L809.099,859.206C809.558,857.915 810.662,854.956 812.413,850.331C812.85,849.165 813.382,847.602 814.007,845.644L814.927,845.581L816.02,845.613C816.915,847.384 817.705,849.29 818.392,851.331C818.766,852.415 819.38,854.029 820.234,856.175L824.978,869.019L827.506,875.988C828.839,879.946 829.714,882.378 830.131,883.285C830.548,884.191 830.933,884.79 831.287,885.081C831.391,885.165 831.782,885.29 832.459,885.456C833.136,885.623 833.61,885.748 833.881,885.831C834.839,886.102 835.506,886.331 835.881,886.519C835.964,886.748 836.006,886.925 836.006,887.05C836.006,887.154 835.975,887.311 835.912,887.519C835.246,887.54 834.777,887.55 834.506,887.55C833.444,887.55 831.569,887.519 828.881,887.456L825.756,887.386L821.975,887.433C821.725,887.433 821.47,887.421 821.209,887.398C820.949,887.374 820.725,887.363 820.537,887.363L819.85,887.363C819.621,887.342 819.412,887.279 819.225,887.175C819.225,886.884 819.277,886.602 819.381,886.331C819.631,886.206 819.86,886.134 820.069,886.113L823.349,885.893C824.203,885.852 824.848,885.737 825.286,885.549C825.411,885.174 825.473,884.892 825.473,884.704C825.473,884.328 825.202,883.357 824.661,881.792C824.286,880.748 823.959,879.757 823.678,878.818C823.397,877.879 822.289,874.79 820.354,869.551C819.5,869.405 818.75,869.331 818.104,869.331L811.417,869.394L809.448,869.363C808.74,869.363 807.958,869.415 807.104,869.519C806.833,870.144 806.656,870.592 806.572,870.863L803.819,879.456C802.652,882.727 802.069,884.529 802.069,884.863C802.069,885.05 802.162,885.363 802.35,885.8C802.787,885.925 803.371,886.04 804.1,886.144L808.35,886.519C808.579,886.706 808.694,886.873 808.694,887.019C808.694,887.123 808.662,887.279 808.6,887.488C807.662,887.509 806.944,887.519 806.444,887.519C804.777,887.519 802.839,887.467 800.631,887.363C799.61,887.321 798.881,887.3 798.444,887.3C798.006,887.3 797.246,887.321 796.162,887.363C795.454,887.404 794.944,887.425 794.631,887.425C794.131,887.425 793.485,887.394 792.694,887.331L792.694,887.144C792.694,886.998 792.735,886.8 792.819,886.55ZM807.73,867.8C809.959,867.925 812.501,867.988 815.355,867.988C816.98,867.988 818.407,867.936 819.636,867.831C819.428,867.019 819.189,866.259 818.918,865.551C817.566,861.927 816.817,859.928 816.672,859.554L813.831,852.338L813.519,851.775C813.394,852.025 812.935,853.098 812.142,854.993C810.807,858.242 809.847,860.772 809.263,862.583C808.992,863.396 808.711,864.203 808.418,865.004C808.126,865.806 807.944,866.368 807.871,866.691C807.798,867.014 807.688,867.342 807.542,867.675L807.73,867.8Z" style="fill:white;fill-rule:nonzero;"/>
                    </g>
                </g>
            </g>
        </g>
    </g>
</svg>
