<svg id="Layer_2" data-name="Layer 2" xmlns="http://www.w3.org/2000/svg" viewBox="0 0 1000 1000"><defs><style>.cls-1{fill:#fff;}</style></defs><path class="cls-1" d="M386.31,859.23h3.31a12.66,12.66,0,0,1,6.26,1.65,6.16,6.16,0,0,1,2.89,3c.6,1.51.9,4.66.9,9.43V900H356.31v-26.7q0-6.88.83-9.12a6,6,0,0,1,3-3.34,13.13,13.13,0,0,1,6.26-1.58h3.37v-2.55h-40v2.55h3.3a13.06,13.06,0,0,1,6.33,1.65,6.22,6.22,0,0,1,2.82,3c.6,1.51.9,4.66.9,9.43v60.21q0,8.4-1.65,10.6-2.62,3.38-8.4,3.37h-3.3V950h40v-2.55h-3.37a12.66,12.66,0,0,1-6.26-1.65,6.08,6.08,0,0,1-2.89-3q-.9-2.26-.9-9.36V905.06h43.36v28.42q0,8.4-1.73,10.6-2.61,3.38-8.32,3.37h-3.31V950h39.92v-2.55h-3.3a13.07,13.07,0,0,1-6.34-1.65,6.18,6.18,0,0,1-2.82-3q-.88-2.26-.89-9.36V873.27q0-6.88.79-9.12a5.8,5.8,0,0,1,3-3.34,13.14,13.14,0,0,1,6.27-1.58h3.3v-2.55H386.31Z"/><path class="cls-1" d="M432.63,859.23h3.3a13.06,13.06,0,0,1,6.33,1.65,6.22,6.22,0,0,1,2.82,3c.6,1.51.9,4.64.9,9.36v60.28q0,8.4-1.65,10.6c-1.75,2.25-4.54,3.37-8.4,3.37h-3.3V950h40v-2.55h-3.37A12.66,12.66,0,0,1,463,945.8a6.08,6.08,0,0,1-2.89-3q-.9-2.26-.9-9.36V873.2q0-8.4,1.72-10.6c1.75-2.24,4.52-3.37,8.33-3.37h3.37v-2.55h-40Z"/><path class="cls-1" d="M654.22,932.18l-32.48-77.63h-2.41l-32.83,76.8q-4.26,10.11-7.77,13.42c-1.15,1.09-3.65,2-7.52,2.67a28.38,28.38,0,0,1-12.3-3.84q-4.75-3-11.36-12.25l-19.27-26.77q11.78-2.61,17.38-8.94a21.81,21.81,0,0,0,5.61-14.94,20.78,20.78,0,0,0-4.92-13.87,25.13,25.13,0,0,0-12-8q-7.05-2.16-21.91-2.17h-34v2.55H482q5.29,0,8,3,1.94,2.13,1.93,10.94v60.28q0,8-1.45,10.12-2.54,3.85-8.46,3.85h-3.51V950h40v-2.55H514.8q-5.23,0-7.85-3c-1.28-1.43-1.93-5.07-1.93-10.95V906.37c.74,0,1.45.08,2.14.1s1.33,0,1.92,0c1.47,0,3.38,0,5.72-.14L546.38,950h54.16v-2.55q-6.75-.48-8.77-2.1a4.68,4.68,0,0,1-2-3.75c0-1.79.78-4.49,2.34-8.12l6.33-14.72h36.13l5.64,13.42q2.75,6.54,2.75,9.56a4.79,4.79,0,0,1-2,3.86q-2,1.57-7.53,1.85V950h36.81v-2.55q-5.71-.35-8.91-3.13T654.22,932.18ZM508.88,902.1l-1.58,0c-.65,0-1.4,0-2.28,0V863.22a61.08,61.08,0,0,1,10.81-1.31q9,0,14.48,5.48t5.48,14.21A18.49,18.49,0,0,1,529,896.32Q522.23,902.11,508.88,902.1Zm91.66,11.57L616.78,876l15.83,37.72Z"/><path class="cls-1" d="M717.29,496.09c-4.52-13.32-9.75-28-15.11-42.69,15.07-23.34,23.08-50.81,22.45-77-1-44.07-38.31-60.76-62.53-89.55-6.48-7.7-8.42-17.93-8.39-24.76,0-12,4.77-19.51.12-24.67-44.47,68-19,110.56,13,200.12,1.75,4.91,6.06,16.09,11.45,30.34C675.6,474,673,480.33,669,489a129.18,129.18,0,0,0,13.08-11c4.59,12.23,9.63,25.93,14.41,39.54,8.76,24.92,17.47,46.81,17.47,70.94,0,25-23,57.17-58.74,91.34C611,722,551.65,756.56,499.86,756.56c-60.26,0-67.7-54.27-52.4-116.83a75.84,75.84,0,0,1,24.85-4.07c29.51,0,34.8,19.65,66.3,19.65,33.56,0,52.64-26.75,73.53-54.06,20.76-27.15,22.56-35,32.88-42.42S660.69,551,662.4,549c.88-1,1.32-2.09,2.16-5.83,1.18-5.3,2.73-15.43,4.39-35.22-21.54,2.7-63.83,10.84-86.06,13.75,0,0,19.55-31.56,23.29-58.36,3.6-25.78-10.65-66.21-18.87-89.44,11.26-18.26,36.7-70.81,4.44-108.17-20.92-24.22-51.15-39.14-51.25-62.37-.08-18.86,4.17-22.33-.2-26.7-30.08,42.68-24.12,91.52-5.86,140.56,7.89,21.17,18.58,49.25,28.38,75.82-2.59,6.55-5.89,15.2-8.13,22.15l11.82-12.11c9,24.51,16.7,46.72,20.15,59.58,2.45,9.15,1.07,16.17-1.39,20-11.64,18.07-46.78,39-49.24,45.2-3,7.54-9.2,26.77-11.38,36.39-2,8.79,3,8,5.76,7.75s91.92-15,91.92-15c-5.79,21.94-39.64,55.29-74.19,55.29-30.77,0-34.34-20.22-75.11-20.22a60.44,60.44,0,0,0-10.71.95c3.77-9.8,7.91-19.52,12.3-29a315.15,315.15,0,0,0-20.24,31c-22.39,7.36-37.3,27.44-52.29,46.43-18.79,23.82-33.88,47.25-64.45,47.25-47.45,0-57.78-56.05-38.45-105.42,54-138,205.61-248.22,205.61-388.25,0-87.88-54-145.06-54-145.06C430.42,152.44,432,227.88,432,227.88c16.78,1.29,25.22-16,25.93-30.75.6-12.41-5-29.8-5.08-40.72,40.9,43.08,12.4,121.47-31.7,193C351.27,462.67,265.44,557.24,265.44,661.27c0,60.88,34.34,80,54.79,80,25.32,0,47.34-18.18,63.33-39.41,9-12,22.9-38.48,47.31-54.07-37.78,118.32,21.26,160,69,160,67.67,0,129.86-50,172-101,40.31-48.9,62.73-94.73,62.73-131.23C734.56,547.78,729,530.64,717.29,496.09Zm-21.42-59.86c-6.46-17.49-12.76-34.29-17.89-48.14-8-21.58-12.71-33.85-11.32-35.24s32.07,21.54,34.24,44.48C702,408.46,700.4,421.31,695.87,436.23ZM581.2,361.09c-7.44-17.38-21.79-53.3-24.72-60.94-3.57-9.34-4.63-14-3.47-14.86s17,8.58,29.35,30.91C591.42,332.5,585.59,351.1,581.2,361.09Z"/><path class="cls-1" d="M413,599.43c9-4,12.31-6.06,16.78-12.11s17.07-28,17.07-28-30.07,11.62-52.9,11.62-39.21-10.13-36.24-17.77,18.17-9.83,27.6-9.83c7.15,0,9.79,1.06,14.49,1.06s8.47-1.88,9.3-6.65,4-32.85,4.15-34.24-.49-2.78-3.4-2.78c-54.12,0-79.83,49-79.93,74.11-.06,14.79,9,22.49,23.3,22.95a63,63,0,0,0,18.59-2l-55.79,38.92S404,603.4,413,599.43Z"/><path class="cls-1" d="M534.38,690.12c-14.43,5.89-14,9.2-23.26,28,0,0,17.47-7.94,19.7-8.94s4.07-5.06,5-6.65,1.59-2.13,4-3,62.14-24.71,70.58-28.29,12.16-10.67,17.37-24.41c0,0-10.67,9.72-20.59,13.89S548.8,684.23,534.38,690.12Z"/><path class="cls-1" d="M454.55,438.68c2.43-.9,62.14-24.72,70.58-28.29S537.29,399.72,542.5,386c0,0-10.67,9.73-20.6,13.89s-58.4,23.51-72.83,29.4-14,9.2-23.26,28c0,0,17.47-7.94,19.71-8.93s4.07-5.07,5-6.66S452.12,439.57,454.55,438.68Z"/><path class="cls-1" d="M442.09,398.64c-14.43,5.89-14,9.2-23.26,28,0,0,17.47-7.94,19.7-8.93s4.07-5.07,5-6.65,1.59-2.14,4-3,62.14-24.72,70.58-28.29,12.16-10.67,17.37-24.42c0,0-10.67,9.73-20.6,13.9S456.51,392.76,442.09,398.64Z"/></svg>