<svg id="Layer_2" data-name="Layer 2" xmlns="http://www.w3.org/2000/svg" viewBox="0 0 1000 1000"><defs><style>.cls-1{fill:#1b1b7a;}</style></defs><path class="cls-1" d="M758.07,579.81c-5.36-15.81-11.58-33.23-18-50.7,17.9-27.72,27.42-60.34,26.67-91.46-1.25-52.35-45.5-72.17-74.27-106.36-7.7-9.14-10-21.3-10-29.41.06-14.21,5.66-23.17.14-29.3-52.82,80.8-22.6,131.31,15.4,237.68,2.09,5.84,7.21,19.11,13.6,36-3.15,7.28-6.26,14.8-11,25a154.77,154.77,0,0,0,15.54-13.09c5.44,14.53,11.43,30.8,17.11,47,10.4,29.6,20.75,55.6,20.75,84.26,0,29.66-27.35,67.9-69.77,108.48-52.48,50.2-122.95,91.23-184.46,91.23-71.57,0-80.4-64.46-62.22-138.76a90,90,0,0,1,29.5-4.84c35.05,0,41.34,23.35,78.75,23.35,39.85,0,62.52-31.78,87.32-64.22,24.66-32.24,26.8-41.54,39.06-50.38s18.61-9.27,20.63-11.67c1-1.24,1.58-2.48,2.57-6.92,1.4-6.3,3.25-18.33,5.22-41.83-25.59,3.21-75.81,12.87-102.22,16.33,0,0,23.23-37.49,27.67-69.32,4.27-30.62-12.65-78.63-22.42-106.22,13.38-21.69,43.59-84.1,5.28-128.47-24.84-28.77-60.75-46.49-60.87-74.07-.1-22.41,4.95-26.53-.24-31.72-35.72,50.7-28.64,108.7-7,166.94,9.36,25.14,22.06,58.5,33.7,90-3.08,7.79-7,18.07-9.65,26.32l14-14.38c10.64,29.11,19.84,55.49,23.93,70.76,2.91,10.86,1.28,19.21-1.65,23.75-13.82,21.46-55.56,46.29-58.47,53.68-3.54,9-10.94,31.8-13.52,43.23-2.36,10.43,3.53,9.43,6.83,9.19S645.28,652.2,645.28,652.2c-6.87,26.06-47.07,65.67-88.1,65.67-36.55,0-40.79-24-89.21-24A73.17,73.17,0,0,0,455.25,695c4.48-11.62,9.39-23.17,14.61-34.44a377.08,377.08,0,0,0-24,36.81c-26.6,8.75-44.31,32.59-62.1,55.15-22.32,28.29-40.24,56.12-76.55,56.12-56.36,0-68.62-66.58-45.67-125.21,64.13-163.85,244.2-294.81,244.2-461.12C505.7,117.91,441.56,50,441.56,50c-24.2,121.67-22.32,211.27-22.32,211.27,19.93,1.53,29.95-19,30.8-36.53.7-14.73-5.92-35.39-6-48.36,48.57,51.17,14.73,144.27-37.65,229.19C323.36,540.12,221.42,652.44,221.42,776c0,72.31,40.79,95,65.07,95,30.07,0,56.23-21.58,75.22-46.8C372.45,810,388.9,778.51,417.89,760,373,900.51,443.15,950,499.83,950c80.38,0,154.23-59.35,204.24-120,47.89-58.08,74.51-112.5,74.51-155.85C778.58,641.2,772,620.84,758.07,579.81Zm-25.44-71.09C725,488,717.47,468,711.38,451.55c-9.49-25.64-15.09-40.21-13.44-41.86s38.08,25.59,40.67,52.83C739.86,475.74,738,491,732.63,508.72ZM596.44,419.48c-8.84-20.64-25.88-63.31-29.36-72.39-4.24-11.08-5.5-16.66-4.12-17.64s20.13,10.19,34.86,36.71C608.58,385.52,601.66,407.61,596.44,419.48Z"/><path class="cls-1" d="M396.73,702.54c10.72-4.71,14.61-7.19,19.92-14.38s20.28-33.25,20.28-33.25-35.72,13.8-62.84,13.8-46.57-12-43-21.11,21.57-11.67,32.77-11.67c8.49,0,11.64,1.26,17.22,1.26s10.06-2.24,11-7.9,4.75-39,4.93-40.66-.59-3.3-4-3.3c-64.28,0-94.81,58.15-94.93,88-.07,17.56,10.64,26.71,27.67,27.26a75,75,0,0,0,22.08-2.42l-66.26,46.21S386,707.26,396.73,702.54Z"/><path class="cls-1" d="M540.83,810.26c-17.13,7-16.58,10.92-27.63,33.28,0,0,20.75-9.43,23.41-10.61s4.83-6,5.95-7.9,1.89-2.53,4.77-3.59,73.81-29.36,83.83-33.6,14.44-12.68,20.63-29c0,0-12.68,11.55-24.46,16.5S558,803.26,540.83,810.26Z"/><path class="cls-1" d="M446,511.62c2.89-1.06,73.8-29.35,83.82-33.6s14.44-12.67,20.63-29c0,0-12.67,11.55-24.46,16.51s-69.36,27.92-86.49,34.91-16.59,10.93-27.63,33.29c0,0,20.75-9.43,23.4-10.61s4.84-6,6-7.9S443.13,512.68,446,511.62Z"/><path class="cls-1" d="M431.22,464.08c-17.14,7-16.59,10.92-27.63,33.28,0,0,20.75-9.43,23.4-10.61s4.84-6,6-7.9,1.88-2.53,4.77-3.59,73.8-29.36,83.82-33.6,14.45-12.68,20.63-29c0,0-12.67,11.55-24.46,16.5S448.35,457.08,431.22,464.08Z"/></svg>